<?xml version="1.0" standalone="no"?>
<!DOCTYPE svg PUBLIC "-//W3C//DTD SVG 20010904//EN"
 "http://www.w3.org/TR/2001/REC-SVG-20010904/DTD/svg10.dtd">
<svg version="1.0" xmlns="http://www.w3.org/2000/svg"
 width="486.000000pt" height="486.000000pt" viewBox="0 0 486.000000 486.000000"
 preserveAspectRatio="xMidYMid meet">
<metadata>
Created by potrace 1.11, written by Peter Selinger 2001-2013
</metadata>
<g transform="translate(0.000000,486.000000) scale(0.100000,-0.100000)"
fill="#000000" stroke="none">
<path d="M390 4825 c0 -26 7 -43 26 -60 31 -29 40 -31 48 -9 11 27 7 42 -20
73 -35 42 -54 40 -54 -4z"/>
<path d="M4786 4848 c24 -39 66 -98 70 -98 2 0 4 25 4 55 l0 55 -41 0 c-29 0
-38 -3 -33 -12z"/>
<path d="M0 4770 c0 -75 10 -101 24 -64 11 27 6 82 -7 87 -9 3 -9 7 1 20 14
16 9 37 -9 37 -5 0 -9 -36 -9 -80z"/>
<path d="M116 4798 c22 -40 49 -58 86 -58 l39 0 -15 29 c-16 29 -40 41 -89 41
-20 0 -26 -4 -21 -12z"/>
<path d="M1652 4543 c-62 -30 -113 -122 -97 -173 6 -19 5 -19 -31 -4 -43 18
-74 13 -127 -22 -47 -31 -43 -43 4 -15 38 24 80 26 123 8 l30 -13 -60 -22
c-119 -43 -273 -160 -358 -271 -116 -151 -206 -388 -222 -588 l-7 -82 -108
-101 c-135 -126 -164 -177 -157 -274 3 -38 16 -87 32 -122 l27 -58 -35 -35
c-42 -45 -58 -76 -65 -125 -6 -37 -8 -39 -61 -53 -101 -26 -161 -86 -162 -163
0 -40 21 -84 51 -107 27 -20 32 -4 11 37 -24 47 -26 93 -4 128 20 35 79 77
125 90 l36 10 12 -48 c10 -41 10 -56 -3 -94 -19 -56 -19 -79 -2 -129 13 -36
13 -38 -13 -58 -33 -27 -99 -21 -144 11 l-30 23 19 -26 c10 -14 29 -30 42 -36
32 -15 92 -13 122 4 14 8 28 14 32 15 13 0 48 -78 48 -108 0 -61 -78 -94 -121
-51 -35 35 -31 15 6 -29 40 -46 90 -67 140 -58 31 6 36 4 51 -26 9 -18 45 -63
80 -100 64 -67 78 -100 52 -126 -16 -16 -50 -15 -67 0 -11 11 -13 10 -9 -2 6
-19 76 -60 103 -60 11 0 32 6 47 14 16 9 42 12 65 9 28 -4 43 -1 52 11 12 14
11 16 -8 16 -27 0 -29 38 -2 71 37 48 56 95 61 156 l5 62 45 -20 c25 -11 60
-34 77 -52 53 -51 44 -83 -42 -143 -63 -43 -85 -76 -85 -127 0 -50 63 -97 128
-97 l27 0 -25 13 c-29 15 -37 50 -19 84 7 13 50 51 95 84 44 33 87 71 94 84 7
13 17 22 22 19 17 -11 7 -77 -22 -134 -16 -33 -30 -73 -30 -90 0 -55 61 -91
91 -53 12 15 12 16 -5 10 -12 -5 -23 -3 -28 5 -17 27 -7 60 32 102 45 49 70
101 70 148 l0 32 36 -35 c47 -45 64 -79 64 -129 0 -45 -26 -80 -60 -80 -11 0
-20 -4 -20 -10 0 -13 17 -12 65 5 22 8 41 15 43 15 1 0 2 -18 2 -40 0 -85 53
-135 111 -105 33 18 39 36 9 28 -23 -6 -35 16 -26 50 7 30 76 118 87 111 12
-7 22 -70 15 -99 -5 -19 -13 -25 -33 -25 -25 0 -26 -1 -8 -20 38 -42 82 -34
110 20 19 38 19 96 -1 169 -11 37 -14 72 -10 95 8 40 26 49 26 12 0 -50 35
-175 81 -289 l49 -119 -40 -45 c-70 -80 -120 -214 -120 -320 0 -66 26 -162 61
-221 10 -18 19 -35 19 -37 0 -2 -18 -25 -41 -51 -50 -58 -86 -114 -95 -148 -8
-32 -15 -30 288 -63 42 -5 54 -12 95 -57 25 -28 100 -106 165 -173 111 -114
123 -124 181 -141 78 -24 151 -35 177 -27 24 8 25 25 4 84 -8 25 -40 123 -70
219 l-55 174 63 96 c34 54 78 133 98 177 32 74 35 87 35 180 0 55 -4 113 -8
129 -8 27 -7 27 9 11 16 -16 19 -15 45 17 32 37 37 58 13 58 -9 0 -12 5 -8 13
6 9 5 9 -8 -1 -16 -13 -27 -6 -42 28 -3 8 -4 2 -1 -13 5 -26 3 -28 -21 -25
-21 2 -33 16 -61 71 l-35 68 28 75 c22 58 36 80 61 95 19 12 42 40 55 69 l24
49 32 -25 c37 -30 41 -51 10 -56 -22 -4 -22 -5 4 -18 25 -12 30 -11 47 4 29
26 35 69 16 105 -8 17 -19 31 -23 31 -5 0 -18 9 -30 20 -25 24 -29 72 -8 108
12 23 13 23 24 -16 6 -21 34 -66 62 -101 54 -67 65 -112 33 -130 -32 -17 10
-24 50 -8 33 14 87 72 87 95 0 6 12 25 28 43 17 21 21 31 11 27 -24 -9 -34
101 -11 120 26 20 32 14 32 -30 0 -96 39 -168 91 -168 l28 0 -24 25 c-27 26
-31 69 -17 150 l8 40 12 -48 c15 -59 46 -91 101 -108 55 -16 135 1 191 42 47
34 48 44 4 28 -39 -15 -81 2 -90 36 -10 41 4 88 47 156 89 142 113 221 89 294
-16 48 -72 111 -124 138 l-41 21 42 7 c81 15 102 39 63 74 -32 29 -43 81 -38
174 3 47 2 73 -2 56 -22 -87 -5 -201 36 -246 26 -29 -8 -44 -110 -48 -70 -2
-97 -8 -118 -23 -16 -10 -33 -16 -39 -12 -15 9 -39 68 -39 96 -1 40 73 262 80
242 5 -12 9 0 14 34 8 65 19 64 65 -7 l34 -52 39 38 c32 31 40 35 48 23 6 -9
10 -10 10 -3 0 28 -24 23 -59 -11 l-37 -37 -12 25 c-6 14 -27 42 -46 64 -20
21 -34 41 -31 43 2 3 8 42 14 87 10 77 6 147 -15 272 l-6 35 19 -30 c20 -31
82 -90 103 -97 8 -2 8 -11 1 -31 -17 -43 -13 -128 7 -167 20 -41 75 -75 150
-91 28 -7 52 -16 52 -20 0 -5 -14 -43 -30 -85 -66 -165 -46 -229 86 -275 32
-12 60 -22 61 -23 1 -1 -9 -29 -22 -62 -27 -64 -33 -152 -14 -201 12 -32 47
-73 62 -73 6 0 1 10 -10 23 -28 31 -53 90 -53 125 0 37 67 172 85 172 24 0 74
-60 81 -96 3 -19 4 -54 1 -77 l-5 -42 15 35 c10 23 13 50 9 80 -5 37 -14 52
-49 85 l-43 40 24 47 c13 25 29 81 35 123 9 69 8 81 -9 112 -21 40 -71 75
-132 94 -41 12 -41 12 -27 40 19 36 19 82 1 118 -19 36 -97 96 -168 129 -32
14 -58 31 -58 36 0 5 9 43 21 85 18 64 19 80 9 115 -17 56 -52 98 -131 157
-81 60 -118 108 -154 198 -81 202 -147 310 -260 424 -171 172 -395 279 -644
308 -281 34 -647 -36 -831 -157 l-53 -35 5 51 c7 67 48 127 108 158 36 18 40
22 20 22 -14 0 -40 -8 -58 -17z m1228 -795 c1 -165 85 -300 256 -414 l84 -56
2 -56 1 -57 6 53 6 54 40 -30 c94 -69 129 -138 129 -257 1 -85 -9 -139 -23
-130 -5 3 -7 -3 -4 -13 2 -10 -12 -55 -32 -101 -20 -45 -43 -103 -51 -129 -18
-60 -18 -142 0 -168 13 -19 9 -24 -67 -81 -45 -34 -138 -108 -207 -165 l-125
-104 -2 49 c-1 34 -11 69 -32 110 l-31 59 28 21 c103 80 237 232 268 306 8 19
23 98 34 175 11 78 25 157 30 176 6 19 10 42 9 50 -2 35 -30 -96 -49 -228 -12
-84 -28 -159 -39 -180 -72 -142 -246 -302 -459 -422 -87 -48 -92 -53 -78 -69
9 -10 16 -34 16 -53 0 -31 -5 -39 -35 -57 -19 -11 -35 -26 -34 -33 0 -10 2
-10 6 0 3 7 18 19 34 27 24 13 29 13 29 2 0 -25 -27 -93 -54 -136 l-26 -41
-90 76 c-50 42 -90 80 -90 84 0 5 20 2 45 -6 25 -7 43 -9 40 -5 -3 5 -28 15
-56 21 -44 11 -53 17 -66 47 -8 19 -13 49 -11 66 4 37 28 50 28 14 0 -25 21
-38 85 -53 17 -4 40 -18 52 -31 19 -20 26 -22 44 -12 12 6 23 19 26 29 3 10
16 23 30 29 14 7 23 14 21 17 -3 2 -18 -2 -33 -10 -20 -11 -33 -12 -41 -5 -9
7 -20 7 -35 -1 -23 -13 -87 -7 -120 11 -25 13 -26 54 -1 44 9 -3 40 -8 67 -11
36 -3 24 1 -39 15 -116 26 -277 81 -283 98 -3 7 -9 11 -13 8 -5 -3 -28 4 -53
14 l-45 20 9 43 c15 66 14 150 -4 183 -35 69 -87 91 -239 105 -193 17 -268 53
-304 145 -72 189 214 525 610 715 133 64 399 174 509 212 89 29 291 86 315 87
8 1 12 -16 12 -51z m729 -321 c12 -24 21 -57 21 -75 0 -39 -29 -102 -47 -102
-25 0 -104 90 -133 152 -16 33 -32 86 -35 117 -3 31 -8 76 -10 101 l-5 45 94
-98 c52 -54 104 -117 115 -140z m-2359 -92 c0 -14 -4 -25 -9 -25 -4 0 -6 11
-3 25 2 14 6 25 8 25 2 0 4 -11 4 -25z m-322 -71 c7 -36 21 -92 32 -124 18
-54 18 -62 5 -108 -12 -39 -28 -62 -73 -104 -32 -29 -81 -65 -109 -80 l-51
-28 -37 55 c-32 46 -38 62 -38 109 0 83 31 136 147 249 56 53 103 97 106 97 3
0 11 -30 18 -66z m2835 -128 c33 -22 47 -58 47 -119 0 -74 -7 -82 -59 -66 -51
15 -119 72 -137 116 -15 34 -18 90 -8 117 5 13 14 12 69 -9 35 -13 74 -31 88
-39z m-2738 -163 c40 -104 42 -189 5 -228 -27 -29 -92 -65 -155 -85 -62 -20
-151 -67 -188 -100 -37 -32 -47 -30 -47 9 0 22 8 29 53 46 40 16 56 28 72 57
19 36 19 39 3 85 -21 56 -22 54 81 112 62 35 97 76 121 144 8 20 17 37 20 37
3 0 19 -35 35 -77z m283 -55 c7 -24 15 -49 18 -55 3 -7 -1 -13 -10 -13 -8 0
-21 -10 -27 -22 -12 -22 -11 -22 8 -5 29 25 35 22 65 -32 22 -40 24 -50 13
-55 -8 -3 -15 -13 -15 -23 0 -10 -12 -31 -26 -46 -14 -16 -23 -31 -19 -35 4
-4 10 -1 13 7 2 7 17 28 33 45 24 26 30 29 39 16 8 -12 10 -12 10 -1 0 11 5
10 23 -3 44 -33 163 -84 237 -101 96 -23 168 -59 182 -91 9 -19 9 -36 -1 -72
-7 -25 -14 -48 -16 -50 -6 -6 -110 50 -172 94 -33 24 -83 69 -111 99 -43 48
-51 54 -62 40 -11 -14 -14 -13 -26 2 -12 16 -13 16 -7 -4 4 -18 1 -23 -15 -23
-17 0 -22 8 -25 38 -3 33 -4 32 -5 -11 -1 -27 3 -57 9 -68 9 -18 17 -19 70
-13 65 7 68 4 45 -49 -15 -38 -76 -94 -122 -113 -45 -19 -157 -18 -194 1 -16
9 -37 30 -46 48 -36 67 -69 247 -47 247 4 0 22 -15 40 -32 28 -27 35 -30 43
-18 5 8 10 24 10 35 0 11 4 31 8 45 6 21 8 17 13 -25 l6 -50 1 64 c2 54 4 62
16 51 8 -6 20 -27 26 -46 7 -20 14 -33 17 -30 3 3 -5 26 -17 51 -17 35 -27 45
-43 43 -49 -7 -47 124 3 174 16 15 32 28 37 28 5 0 14 -19 21 -42z m2599 -54
c35 -27 77 -92 87 -137 7 -28 -28 -108 -72 -164 l-17 -23 -63 30 c-53 25 -66
36 -82 72 -34 74 -25 133 34 226 24 39 28 41 53 31 16 -6 42 -21 60 -35z
m-3176 -124 c11 -36 10 -43 -12 -74 -20 -29 -56 -56 -74 -56 -12 0 -3 74 11
103 19 37 44 67 55 67 5 0 14 -18 20 -40z m669 -14 c0 -2 -7 -6 -15 -10 -8 -3
-15 -1 -15 4 0 6 7 10 15 10 8 0 15 -2 15 -4z m-524 -143 c-44 -66 -58 -121
-59 -220 0 -76 -3 -95 -18 -109 -17 -15 -19 -13 -40 28 -13 26 -24 69 -27 110
-4 59 -2 72 22 112 28 47 94 100 144 115 1 1 -9 -16 -22 -36z m852 -171 c77
-36 101 -51 96 -62 -4 -8 -9 -35 -11 -60 -4 -36 0 -52 19 -80 42 -62 94 -72
182 -35 18 8 19 5 12 -35 -9 -55 -52 -147 -76 -160 -24 -13 -188 78 -410 226
-209 140 -214 144 -167 144 32 0 107 50 148 98 l34 40 35 -14 c19 -8 81 -36
138 -62z m1753 -52 c21 -12 26 -50 6 -50 -20 0 -57 30 -57 46 0 16 23 18 51 4z
m-4 -68 l23 -17 -24 -50 -24 -50 -1 45 c-1 25 -4 55 -7 68 -7 26 3 28 33 4z
m-1470 -10 c16 -10 21 -74 7 -79 -19 -7 -44 26 -44 58 0 29 13 36 37 21z
m-815 -143 c9 -19 30 -52 48 -72 20 -24 27 -37 18 -37 -25 0 -107 60 -114 83
-11 33 -7 98 7 132 l12 30 7 -50 c4 -27 14 -66 22 -86z m1313 -59 c0 -18 -33
-26 -47 -12 -6 6 -7 15 -3 22 10 16 50 8 50 -10z m-1489 -45 c3 -13 4 -34 2
-46 -3 -22 -6 -20 -25 16 -11 22 -24 51 -28 63 -7 23 -7 23 19 7 15 -10 29
-28 32 -40z m2361 -57 c-3 -7 -5 -2 -5 12 0 14 2 19 5 13 2 -7 2 -19 0 -25z
m-583 -839 c13 -11 -14 -175 -32 -198 -10 -11 -25 -29 -35 -41 -18 -21 -19
-21 -32 -3 -8 10 -15 24 -15 31 0 17 -35 91 -55 116 -15 19 -15 19 -40 -4 -22
-21 -29 -22 -45 -12 -41 25 -47 17 -39 -57 4 -37 13 -87 19 -110 6 -23 13 -58
16 -78 2 -20 23 -90 45 -157 79 -236 71 -282 -34 -190 -96 85 -181 209 -271
398 -57 122 -65 142 -45 130 12 -7 8 20 -7 59 -4 11 6 22 33 35 21 11 46 29
56 40 14 16 27 19 55 16 80 -10 152 -12 158 -3 3 5 10 7 15 4 5 -4 9 -2 9 2 0
5 12 8 28 7 15 -1 32 3 39 8 7 5 16 8 20 5 4 -3 28 3 53 12 44 17 75 14 104
-10z m-523 -49 c-26 -22 -41 -25 -41 -9 0 5 5 7 10 4 6 -3 10 -2 10 4 0 8 15
15 40 20 3 0 -6 -9 -19 -19z m-228 -422 c-5 -9 -53 -11 -53 -3 0 4 7 20 16 37
l16 32 13 -30 c7 -16 10 -32 8 -36z"/>
<path d="M2001 3425 c-71 -20 -173 -75 -244 -131 -72 -58 -68 -70 5 -15 104
78 231 121 360 121 47 0 93 -6 114 -15 49 -20 40 2 -12 29 -50 26 -150 31
-223 11z"/>
<path d="M2825 3412 c-34 -21 -62 -52 -48 -52 5 0 14 5 20 11 21 21 86 29 143
18 76 -16 144 -52 207 -112 29 -27 56 -48 58 -45 11 11 -135 137 -190 163 -74
37 -149 43 -190 17z"/>
<path d="M3212 3135 c0 -16 2 -22 5 -12 2 9 2 23 0 30 -3 6 -5 -1 -5 -18z"/>
<path d="M3202 3080 c0 -14 2 -19 5 -12 2 6 2 18 0 25 -3 6 -5 1 -5 -13z"/>
<path d="M2050 3008 c-41 -12 -90 -21 -107 -21 -28 -1 -31 -3 -20 -15 12 -16
8 -16 -68 4 -17 4 -16 2 5 -15 l25 -21 -30 0 c-16 0 -42 7 -57 14 -42 22 -33
3 10 -22 37 -21 37 -22 9 -22 -15 0 -44 7 -64 15 -30 13 -34 13 -23 0 22 -27
99 -65 142 -71 38 -5 49 -2 95 29 108 73 222 96 294 59 30 -15 37 -16 49 -4
15 17 9 22 -65 57 -74 34 -110 37 -195 13z"/>
<path d="M2818 2999 c-85 -46 -56 -69 35 -29 29 13 56 18 71 14 26 -6 86 -66
86 -84 0 -32 83 31 112 83 8 16 7 17 -11 8 -26 -15 -31 -14 -25 3 4 11 0 13
-17 9 -12 -4 -20 -2 -17 3 4 5 -4 9 -15 10 -12 1 -53 4 -92 8 -66 6 -74 4
-127 -25z"/>
<path d="M3303 2855 c0 -22 2 -30 4 -17 2 12 2 30 0 40 -3 9 -5 -1 -4 -23z"/>
<path d="M3311 2774 c0 -11 3 -14 6 -6 3 7 2 16 -1 19 -3 4 -6 -2 -5 -13z"/>
<path d="M3274 2714 c-18 -14 -18 -15 4 -4 12 6 22 13 22 15 0 8 -5 6 -26 -11z"/>
<path d="M3224 2684 c-18 -14 -18 -15 4 -4 12 6 22 13 22 15 0 8 -5 6 -26 -11z"/>
<path d="M3163 2649 c-35 -22 -46 -37 -15 -20 22 13 58 40 52 41 -3 0 -20 -10
-37 -21z"/>
<path d="M2412 2635 c-76 -17 -170 -59 -178 -79 -8 -21 56 -152 110 -223 52
-68 125 -123 166 -123 63 0 189 117 266 249 59 100 57 117 -20 155 -53 27 -70
30 -170 33 -70 2 -134 -3 -174 -12z m254 -189 c20 -21 22 -29 14 -57 -5 -18
-7 -35 -5 -38 8 -7 -27 -41 -37 -35 -4 3 -7 0 -6 -8 2 -9 -10 -13 -41 -13 -43
0 -46 2 -69 47 -22 42 -23 51 -12 78 26 62 110 76 156 26z"/>
<path d="M2473 2143 c9 -2 23 -2 30 0 6 3 -1 5 -18 5 -16 0 -22 -2 -12 -5z"/>
<path d="M3171 1337 c-6 -12 -9 -38 -7 -57 3 -19 5 -38 5 -42 1 -4 9 -12 20
-17 15 -8 18 -7 17 6 0 9 5 18 12 20 8 3 12 -5 12 -24 0 -22 2 -25 10 -13 5 8
10 25 10 38 0 12 5 22 10 22 6 0 10 -7 10 -16 0 -8 4 -13 9 -9 5 3 13 0 17 -7
5 -8 9 -6 14 7 9 27 -8 42 -42 37 -23 -3 -29 1 -38 22 -5 15 -14 24 -20 21 -5
-3 -10 1 -10 9 0 25 -16 27 -29 3z"/>
<path d="M2955 1290 c3 -5 10 -10 16 -10 5 0 9 5 9 10 0 6 -7 10 -16 10 -8 0
-12 -4 -9 -10z"/>
<path d="M2998 1293 c7 -3 16 -2 19 1 4 3 -2 6 -13 5 -11 0 -14 -3 -6 -6z"/>
<path d="M3060 1295 c0 -14 29 -92 30 -80 0 6 8 -2 16 -17 33 -63 62 -6 29 58
-14 28 -45 42 -45 21 0 -6 -7 -2 -15 9 -8 10 -14 15 -15 9z"/>
<path d="M3810 1179 c0 -8 4 -30 10 -49 5 -19 11 -57 11 -85 2 -53 22 -95 45
-95 8 0 14 -7 14 -15 0 -16 18 -19 38 -7 8 6 10 19 6 41 -5 23 -9 29 -15 19
-12 -19 -11 4 1 38 6 16 7 31 1 38 -4 6 -5 19 -2 30 7 17 9 16 24 -7 9 -15 17
-31 17 -36 0 -20 49 -63 65 -57 8 3 15 1 15 -4 0 -6 4 -10 8 -10 5 0 7 13 4
29 -2 16 1 32 7 35 15 9 14 63 -1 72 -8 5 -9 -2 -5 -27 l7 -34 -20 24 c-11 13
-20 31 -20 40 -1 11 -4 9 -14 -8 -13 -23 -13 -23 -19 -2 -3 12 -9 20 -14 19
-11 -4 -53 39 -54 55 0 6 -5 1 -10 -13 -10 -24 -11 -24 -25 -6 -14 20 -14 20
-15 0 0 -18 -1 -18 -9 1 l-9 20 -1 -20 c-1 -19 -2 -19 -20 4 -12 14 -20 18
-20 10z m110 -39 c0 -5 -5 -10 -11 -10 -5 0 -7 5 -4 10 3 6 8 10 11 10 2 0 4
-4 4 -10z"/>
<path d="M4220 1130 c-12 -30 -34 -33 -23 -3 5 11 3 14 -6 9 -8 -5 -10 -18 -7
-35 l7 -26 -21 25 -20 25 0 -25 c0 -37 12 -100 19 -100 9 0 58 100 65 133 8
36 2 35 -14 -3z"/>
<path d="M4323 1105 c-20 -49 -32 -106 -22 -100 5 4 9 13 9 22 0 9 7 21 16 27
10 8 14 24 12 46 l-3 35 -12 -30z"/>
<path d="M3590 1060 l-23 -49 -14 27 c-8 14 -15 27 -16 28 -1 1 -2 -26 -2 -60
0 -53 3 -62 19 -63 10 -1 16 0 13 3 -7 7 12 65 28 84 12 15 31 80 23 80 -3 0
-15 -22 -28 -50z"/>
<path d="M4237 1093 c-3 -10 -8 -31 -11 -48 -6 -28 -5 -29 9 -11 8 11 15 25
15 32 0 7 3 19 6 28 3 9 1 16 -4 16 -6 0 -13 -8 -15 -17z"/>
<path d="M4107 1050 c3 -30 7 -57 9 -59 7 -8 2 64 -6 89 -6 16 -7 6 -3 -30z"/>
<path d="M3563 1075 c-3 -9 -3 -18 -1 -21 3 -3 8 4 11 16 6 23 -1 27 -10 5z"/>
<path d="M4457 1031 c-4 -17 -3 -21 5 -13 5 5 8 16 6 23 -3 8 -7 3 -11 -10z"/>
<path d="M4201 1013 c-1 -6 -4 -20 -7 -30 -5 -17 -5 -17 6 0 6 10 9 23 6 30
-3 9 -5 9 -5 0z"/>
<path d="M4367 1005 c-19 -54 -25 -75 -22 -75 9 0 37 70 33 82 -3 8 -7 5 -11
-7z"/>
<path d="M4228 910 c-8 -19 -19 -45 -22 -57 -4 -11 -14 -27 -23 -35 -15 -12
-16 -9 -10 27 3 22 3 32 0 22 -5 -18 -5 -18 -18 0 -13 16 -14 13 -9 -22 3 -22
7 -48 8 -57 3 -12 -2 -15 -15 -13 -11 2 -19 -1 -18 -8 1 -7 1 -25 0 -42 -2
-28 -3 -29 -11 -7 -5 12 -13 22 -17 22 -5 0 -10 12 -11 27 -3 37 -12 43 -12 8
0 -28 -1 -28 -15 -9 -8 10 -15 15 -14 9 4 -30 -1 -39 -13 -22 -11 15 -13 13
-15 -17 -2 -19 2 -45 7 -58 9 -21 10 -20 7 9 -4 42 6 34 23 -16 7 -22 17 -38
21 -35 5 3 9 -1 9 -8 1 -9 5 -7 14 5 13 17 14 16 19 -3 3 -11 10 -20 15 -20
12 0 4 38 -9 46 -5 3 -2 19 7 35 8 17 18 28 22 25 3 -4 0 -12 -6 -18 -7 -7
-12 -19 -12 -28 1 -12 3 -11 12 4 10 17 12 16 24 -14 8 -18 14 -42 15 -54 1
-40 18 14 18 62 1 47 20 50 22 4 l1 -27 8 25 c12 36 12 100 0 100 -5 0 -7 8
-4 18 3 9 -1 6 -9 -7 -12 -20 -15 -21 -20 -7 -8 20 36 131 52 131 5 0 16 7 23
15 11 12 11 12 -4 1 -14 -10 -17 -9 -20 6 -2 13 -7 9 -20 -17z"/>
<path d="M230 818 c0 -9 4 -19 9 -22 4 -3 12 -29 16 -58 5 -38 9 -48 14 -34 7
18 8 18 14 2 4 -10 13 -16 21 -13 7 3 19 0 25 -6 9 -9 10 -3 5 23 -8 43 -32
83 -44 75 -6 -4 -10 0 -10 7 0 10 -2 10 -9 -1 -7 -11 -12 -7 -25 15 -10 19
-15 23 -16 12z"/>
<path d="M465 753 c5 -73 5 -76 -9 -48 -8 17 -15 23 -15 15 -1 -10 -6 -7 -17
9 -13 18 -18 20 -25 10 -7 -11 -9 -10 -9 3 0 28 -17 30 -23 2 -2 -14 2 -31 9
-39 8 -7 14 -22 14 -32 0 -29 14 -42 48 -49 29 -6 32 -4 33 17 0 13 3 18 6 12
2 -7 11 -13 18 -13 15 0 20 -13 31 -72 3 -21 10 -38 16 -38 5 0 6 4 3 10 -9
15 34 92 47 84 7 -4 8 -3 4 5 -4 6 -4 25 -1 42 6 24 9 28 21 18 11 -9 14 -8
15 2 0 8 9 32 19 54 l18 40 -6 -44 c-6 -52 13 -51 20 1 6 41 -13 64 -30 37
-15 -23 -37 -26 -28 -3 4 10 2 13 -6 7 -18 -10 -48 -11 -48 -1 0 5 -4 6 -10 3
-5 -3 -10 -18 -10 -33 0 -21 -5 -28 -22 -29 -11 -1 -25 -8 -29 -14 -4 -8 -11
14 -15 49 -10 93 -26 88 -19 -5z m115 -66 c0 -6 -8 -31 -17 -56 -14 -36 -18
-40 -24 -25 -11 27 -10 54 1 29 8 -18 9 -18 9 5 2 39 12 70 22 64 5 -3 9 -10
9 -17z"/>
<path d="M4711 771 c-12 -22 -21 -47 -21 -55 0 -8 -5 -18 -11 -22 -8 -5 -10 1
-7 17 3 13 9 39 13 57 5 21 4 32 -4 32 -6 0 -11 -12 -12 -27 l0 -28 -10 24
c-15 39 -19 19 -13 -62 5 -50 11 -78 20 -81 10 -4 14 3 14 24 0 16 4 31 9 35
12 7 53 116 47 122 -3 3 -14 -13 -25 -36z"/>
<path d="M4310 786 c0 -36 13 -77 21 -65 5 8 8 0 8 -21 -1 -90 3 -154 11 -169
5 -9 12 -38 15 -65 l7 -49 22 55 c13 31 40 78 62 104 21 27 31 43 22 35 -20
-15 -23 -9 -8 18 5 10 6 31 2 46 -7 26 -10 22 -30 -46 -13 -41 -31 -92 -41
-114 l-19 -40 -1 31 c-1 17 12 55 28 85 35 65 46 99 32 99 -5 0 -13 -10 -16
-21 -6 -17 -9 -19 -16 -8 -7 12 -9 11 -9 -1 0 -13 -2 -13 -9 -1 -6 9 -9 -4 -9
-39 -1 -29 -6 -58 -12 -64 -8 -8 -9 0 -4 31 4 30 2 48 -7 59 -7 9 -15 33 -16
53 -3 55 -14 101 -24 101 -5 0 -9 -6 -9 -14z"/>
<path d="M6 775 c-3 -9 -6 -22 -5 -28 0 -7 5 -1 10 12 5 13 8 26 5 28 -2 2 -6
-3 -10 -12z"/>
<path d="M330 761 c0 -5 5 -13 10 -16 6 -3 10 -2 10 4 0 5 -4 13 -10 16 -5 3
-10 2 -10 -4z"/>
<path d="M175 738 c-8 -31 -25 -38 -26 -10 0 11 -2 12 -6 4 -4 -10 -8 -10 -17
3 -9 13 -11 11 -10 -12 0 -16 4 -44 8 -64 7 -31 12 -37 33 -35 23 1 24 4 19
39 -4 21 -1 47 4 58 6 11 9 25 7 32 -3 7 -8 0 -12 -15z"/>
<path d="M4411 733 c0 -25 1 -26 9 -8 12 27 12 35 0 35 -5 0 -10 -12 -9 -27z"/>
<path d="M4525 741 c-4 -13 -11 -19 -18 -15 -7 4 -9 4 -5 -1 4 -4 4 -13 -1
-19 -15 -21 -20 -45 -8 -40 13 5 50 84 43 91 -2 3 -7 -5 -11 -16z"/>
<path d="M4291 737 c-1 -12 -6 -16 -13 -11 -7 4 -6 -1 3 -12 16 -19 15 -54 -2
-54 -5 0 -9 -9 -9 -21 0 -11 4 -18 9 -14 5 3 11 -7 13 -22 2 -16 6 0 8 33 3
34 2 75 -1 90 -4 16 -7 21 -8 11z"/>
<path d="M4442 725 c0 -16 2 -22 5 -12 2 9 2 23 0 30 -3 6 -5 -1 -5 -18z"/>
<path d="M4596 728 c-7 -22 -7 -22 -16 -3 -8 19 -9 19 -9 -2 -1 -12 4 -25 9
-28 6 -3 10 -15 10 -26 0 -11 4 -18 9 -14 6 3 10 13 10 23 0 9 3 29 7 45 8 33
-11 37 -20 5z"/>
<path d="M4736 725 c-3 -9 -6 -22 -5 -28 0 -7 5 -1 10 12 5 13 8 26 5 28 -2 2
-6 -3 -10 -12z"/>
<path d="M812 688 c-14 -14 -16 -48 -3 -48 5 0 11 14 13 30 3 17 4 30 3 30 0
0 -6 -5 -13 -12z"/>
<path d="M696 643 c-6 -14 -5 -15 5 -6 7 7 10 15 7 18 -3 3 -9 -2 -12 -12z"/>
<path d="M4851 634 c0 -11 3 -14 6 -6 3 7 2 16 -1 19 -3 4 -6 -2 -5 -13z"/>
<path d="M4036 627 c3 -10 9 -15 12 -12 3 3 0 11 -7 18 -10 9 -11 8 -5 -6z"/>
<path d="M760 513 c0 -30 10 -54 21 -47 13 8 11 28 -6 50 -14 19 -14 19 -15
-3z"/>
<path d="M830 506 c0 -14 -3 -16 -14 -7 -11 9 -12 6 -8 -15 3 -17 1 -25 -6
-21 -13 9 -22 -16 -15 -43 4 -16 8 -18 14 -8 6 9 9 3 9 -18 0 -51 12 -124 20
-124 4 0 11 12 15 28 l7 27 10 -25 c9 -23 11 -24 17 -6 7 18 9 16 19 -12 8
-24 16 -30 31 -27 12 2 25 -3 31 -13 13 -23 12 -8 -4 58 -9 40 -17 54 -28 52
-9 -1 -18 7 -21 18 -4 17 -3 19 9 9 11 -9 14 -8 14 2 -1 33 -19 89 -34 104
-14 15 -15 12 -10 -32 l6 -48 -31 60 c-17 33 -31 52 -31 41z"/>
<path d="M4771 504 c0 -11 3 -14 6 -6 3 7 2 16 -1 19 -3 4 -6 -2 -5 -13z"/>
<path d="M1062 483 c2 -14 8 -28 14 -30 7 -2 9 8 6 27 -5 37 -25 40 -20 3z"/>
<path d="M932 480 c0 -14 2 -19 5 -12 2 6 2 18 0 25 -3 6 -5 1 -5 -13z"/>
<path d="M991 468 c-1 -29 -15 -37 -25 -15 -3 6 -3 -4 1 -23 3 -19 7 -43 8
-52 1 -10 4 -21 8 -24 4 -4 8 -23 8 -43 2 -30 3 -31 6 -9 2 15 0 44 -6 64 -7
25 -7 43 0 56 6 10 8 31 6 46 l-4 27 -2 -27z"/>
<path d="M1026 473 c-6 -14 -5 -15 5 -6 7 7 10 15 7 18 -3 3 -9 -2 -12 -12z"/>
<path d="M245 469 c-4 -6 -5 -12 -2 -15 2 -3 7 2 10 11 7 17 1 20 -8 4z"/>
<path d="M4817 466 c-14 -11 -16 -18 -7 -40 5 -14 15 -38 21 -53 8 -22 12 -24
19 -13 6 8 10 32 10 53 0 27 -4 37 -16 37 -10 0 -14 6 -10 15 7 18 6 18 -17 1z"/>
<path d="M1147 418 c-10 -32 -13 -56 -7 -63 5 -6 11 -28 13 -48 5 -41 17 -63
17 -29 0 11 3 29 6 39 5 15 4 15 -5 3 -9 -13 -11 -13 -11 3 0 9 4 17 9 17 5 0
13 10 17 23 4 12 12 25 18 30 8 5 7 10 -3 16 -7 5 -11 13 -8 18 3 5 2 15 -4
23 -6 11 -9 7 -10 -15 0 -16 -5 -39 -10 -50 -6 -14 -8 -4 -4 33 3 28 4 52 2
52 -2 0 -11 -23 -20 -52z"/>
<path d="M593 440 c-11 -16 -10 -18 2 -14 8 4 15 12 15 20 0 19 -3 18 -17 -6z"/>
<path d="M544 395 c-14 -30 -30 -55 -36 -55 -6 0 -7 7 -3 18 4 9 9 28 11 42
l4 25 -10 -25 -11 -25 -15 25 c-11 19 -14 20 -10 5 2 -11 8 -45 11 -75 8 -60
24 -102 25 -62 0 12 10 44 22 70 l23 47 8 -47 c5 -27 12 -48 16 -48 3 0 18 29
32 65 28 67 21 82 -7 17 -10 -22 -18 -32 -21 -24 -3 8 0 19 6 25 6 6 11 18 11
27 -1 12 -4 11 -16 -5 -15 -19 -16 -18 -12 18 2 20 2 37 0 37 -2 0 -14 -25
-28 -55z"/>
<path d="M1228 404 c-3 -39 0 -52 15 -63 15 -11 18 -22 13 -65 -4 -35 -3 -45
3 -31 5 11 10 44 10 73 1 28 5 52 10 52 11 0 21 38 14 56 -3 9 -13 12 -25 8
-12 -3 -24 -1 -28 6 -5 7 -10 -8 -12 -36z m29 -36 c-3 -7 -5 -2 -5 12 0 14 2
19 5 13 2 -7 2 -19 0 -25z"/>
<path d="M1075 406 c0 -17 -3 -41 -7 -53 -4 -14 -3 -23 2 -23 6 0 10 9 10 21
0 11 5 17 10 14 6 -3 10 -15 10 -26 0 -10 5 -19 10 -19 16 0 12 57 -5 64 -11
4 -14 13 -10 29 4 16 2 24 -7 24 -9 0 -13 -12 -13 -31z"/>
<path d="M16 414 c-3 -9 -2 -23 4 -32 7 -14 9 -10 10 16 0 35 -5 41 -14 16z"/>
<path d="M940 396 c0 -34 15 -57 22 -34 6 18 -3 68 -13 68 -5 0 -9 -15 -9 -34z"/>
<path d="M1317 406 c-10 -25 -9 -56 2 -56 12 0 19 32 11 54 -6 18 -7 18 -13 2z"/>
<path d="M1000 386 c0 -8 4 -17 9 -20 5 -4 7 3 4 14 -6 23 -13 26 -13 6z"/>
<path d="M110 369 c0 -11 5 -17 10 -14 6 4 11 -11 11 -37 l2 -43 6 40 c8 47 5
61 -15 69 -9 4 -14 -1 -14 -15z"/>
<path d="M283 375 c-17 -33 -25 -87 -11 -83 14 5 31 62 26 86 -3 15 -5 14 -15
-3z"/>
<path d="M1030 376 c0 -8 5 -18 10 -21 6 -3 10 1 10 9 0 8 -4 18 -10 21 -5 3
-10 -1 -10 -9z"/>
<path d="M181 353 c1 -16 -1 -44 -4 -63 l-7 -35 19 40 c12 26 15 44 9 52 -5 7
-7 17 -3 23 3 5 1 10 -5 10 -5 0 -10 -12 -9 -27z"/>
<path d="M228 359 c-3 -9 -2 -22 3 -30 8 -12 10 -12 19 1 5 8 10 20 10 25 0 6
-4 4 -9 -4 -7 -11 -10 -10 -13 5 -3 16 -5 17 -10 3z"/>
<path d="M1020 293 c0 -56 17 -56 21 0 3 30 0 44 -8 44 -9 0 -13 -16 -13 -44z"/>
<path d="M1309 293 c-4 -55 5 -62 16 -13 4 16 2 37 -3 46 -8 14 -11 6 -13 -33z"/>
<path d="M1355 320 c-9 -14 16 -163 26 -153 13 15 22 56 10 49 -12 -8 -14 4
-4 30 6 17 7 17 13 0 5 -16 7 -15 16 6 8 16 7 30 -2 48 -12 23 -13 23 -19 5
-4 -11 -11 -29 -16 -40 -7 -16 -8 -14 -4 10 6 34 -8 65 -20 45z"/>
<path d="M4766 313 c-6 -14 -5 -15 5 -6 7 7 10 15 7 18 -3 3 -9 -2 -12 -12z"/>
<path d="M1050 298 c0 -19 2 -20 10 -8 13 19 13 30 0 30 -5 0 -10 -10 -10 -22z"/>
<path d="M40 295 c0 -24 16 -51 22 -39 3 5 -1 20 -8 34 -12 22 -14 22 -14 5z"/>
<path d="M4689 241 c-17 -39 -35 -69 -39 -66 -4 3 -11 20 -14 40 -12 62 -26
49 -19 -19 6 -69 -3 -129 -16 -107 -6 9 -10 7 -13 -7 -4 -15 -2 -19 8 -15 10
4 14 -4 14 -31 l0 -36 125 0 c120 0 125 1 125 21 0 26 -18 59 -32 59 -6 0 -17
-8 -24 -18 -12 -16 -13 -15 -14 6 0 22 -20 32 -20 10 0 -10 -2 -10 -9 0 -6 10
-12 5 -23 -18 -14 -28 -16 -29 -21 -11 -6 23 -33 29 -40 9 -2 -7 -3 -6 -2 2 1
9 -4 21 -12 29 -15 14 -12 29 22 106 38 85 46 107 41 112 -3 3 -19 -27 -37
-66z m-49 -186 c0 -19 -6 -19 -14 0 -3 8 -1 15 4 15 6 0 10 -7 10 -15z"/>
<path d="M317 255 c-7 -16 -10 -17 -17 -5 -10 16 -14 -14 -10 -75 4 -63 22
-59 47 11 25 75 28 89 11 59 -12 -19 -12 -19 -18 5 -5 23 -6 24 -13 5z"/>
<path d="M1121 254 c0 -11 3 -14 6 -6 3 7 2 16 -1 19 -3 4 -6 -2 -5 -13z"/>
<path d="M720 188 c-14 -31 -20 -37 -20 -21 0 12 -4 25 -10 28 -6 4 -10 -15
-10 -49 0 -46 3 -56 17 -56 9 0 14 3 10 6 -3 3 5 35 19 70 27 72 23 86 -6 22z"/>
<path d="M260 215 c0 -5 5 -17 10 -25 5 -8 10 -10 10 -5 0 6 -5 17 -10 25 -5
8 -10 11 -10 5z"/>
<path d="M355 199 c-4 -6 -5 -12 -2 -15 2 -3 7 2 10 11 7 17 1 20 -8 4z"/>
<path d="M216 185 c-3 -8 -1 -15 4 -15 6 0 10 7 10 15 0 8 -2 15 -4 15 -2 0
-6 -7 -10 -15z"/>
<path d="M4696 145 c-3 -9 -6 -22 -5 -28 0 -7 5 -1 10 12 5 13 8 26 5 28 -2 2
-6 -3 -10 -12z"/>
<path d="M335 119 c-4 -6 -5 -12 -2 -15 2 -3 7 2 10 11 7 17 1 20 -8 4z"/>
<path d="M992 110 c-7 -11 -12 -27 -12 -35 0 -18 -16 -20 -24 -2 -4 6 -4 1 -1
-13 2 -14 5 -33 5 -42 0 -11 8 -18 18 -18 18 0 22 9 48 90 3 8 -6 -5 -20 -30
-28 -51 -36 -29 -10 26 18 38 15 54 -4 24z"/>
<path d="M275 100 c3 -14 5 -42 5 -62 0 -21 5 -38 10 -38 14 0 11 37 -6 85 -7
22 -12 29 -9 15z"/>
<path d="M4576 42 c-3 -5 1 -18 9 -28 14 -18 14 -18 15 3 0 23 -15 39 -24 25z"/>
<path d="M670 34 c0 -13 18 -39 24 -34 2 3 -2 14 -10 24 -8 11 -14 16 -14 10z"/>
<path d="M1086 13 c-6 -14 -5 -15 5 -6 7 7 10 15 7 18 -3 3 -9 -2 -12 -12z"/>
<path d="M1486 13 c-6 -14 -5 -15 5 -6 7 7 10 15 7 18 -3 3 -9 -2 -12 -12z"/>
</g>
</svg>
