<?xml version="1.0" standalone="no"?>
<!DOCTYPE svg PUBLIC "-//W3C//DTD SVG 20010904//EN"
 "http://www.w3.org/TR/2001/REC-SVG-20010904/DTD/svg10.dtd">
<svg version="1.0" xmlns="http://www.w3.org/2000/svg"
 width="80px" height="80px" viewBox="0 0 2000.000000 2000.000000"
 preserveAspectRatio="xMidYMid meet">
<metadata>
Created by potrace 1.15, written by Peter Selinger 2001-2017
</metadata>
<g transform="translate(0.000000,2000.000000) scale(0.100000,-0.100000)"
fill="#000000" stroke="none">
<path d="M9348 19208 c-3 -7 -42 -15 -104 -19 -251 -19 -596 -63 -819 -103
-286 -52 -404 -75 -425 -84 -8 -3 -51 -13 -95 -23 -44 -9 -116 -26 -160 -38
-44 -11 -100 -25 -125 -31 -25 -6 -54 -14 -65 -19 -11 -5 -74 -23 -140 -40
-66 -18 -127 -35 -135 -40 -8 -4 -76 -27 -150 -50 -74 -24 -148 -49 -165 -56
-16 -7 -59 -23 -95 -35 -36 -12 -74 -26 -85 -31 -11 -5 -45 -18 -75 -30 -30
-11 -68 -26 -85 -33 -16 -7 -57 -23 -90 -36 -33 -13 -97 -40 -143 -61 -46 -22
-86 -39 -90 -39 -20 0 -563 -270 -732 -365 -58 -32 -145 -82 -194 -112 -48
-29 -92 -53 -96 -53 -5 0 -10 -4 -12 -8 -1 -4 -25 -21 -53 -37 -44 -25 -413
-269 -486 -320 -226 -161 -564 -430 -779 -621 -191 -169 -573 -550 -746 -744
-325 -364 -552 -658 -811 -1050 -150 -227 -152 -229 -213 -335 -29 -49 -63
-106 -75 -125 -44 -70 -150 -264 -262 -481 -46 -89 -166 -343 -211 -449 -11
-25 -31 -71 -46 -102 -14 -31 -26 -60 -26 -65 -1 -4 -9 -26 -20 -48 -11 -22
-19 -44 -20 -48 0 -4 -8 -27 -19 -50 -20 -46 -130 -348 -180 -497 -40 -118
-126 -408 -153 -515 -70 -280 -86 -349 -109 -460 -11 -55 -29 -149 -40 -210
-11 -60 -26 -146 -34 -190 -27 -147 -70 -499 -95 -770 -5 -55 -9 -102 -10
-105 0 -3 -5 2 -10 10 -6 10 -10 -212 -9 -635 0 -372 4 -641 9 -630 5 11 9 16
10 10 1 -5 5 -55 10 -110 25 -271 67 -613 94 -765 8 -47 22 -128 31 -180 8
-52 18 -102 21 -110 3 -8 14 -60 24 -115 11 -55 26 -127 34 -160 21 -87 54
-219 75 -305 47 -187 241 -793 262 -815 5 -5 9 -15 9 -22 0 -8 30 -89 66 -181
291 -734 679 -1431 1152 -2072 533 -721 1204 -1392 1932 -1931 213 -158 589
-411 654 -441 14 -6 26 -15 26 -20 0 -4 4 -8 10 -8 5 0 33 -14 62 -31 331
-197 714 -393 1008 -518 41 -18 93 -40 115 -51 22 -10 60 -26 85 -35 25 -10
64 -26 87 -36 24 -10 49 -19 56 -19 7 0 17 -4 23 -9 5 -4 63 -27 129 -50 66
-24 136 -49 155 -56 19 -8 73 -26 120 -41 47 -14 94 -30 105 -35 11 -4 54 -18
95 -30 41 -12 101 -30 133 -40 31 -11 64 -19 72 -19 8 0 47 -11 87 -24 40 -14
107 -32 148 -41 70 -16 156 -36 310 -71 123 -29 381 -75 605 -109 50 -7 106
-16 125 -19 19 -4 107 -14 195 -22 88 -9 203 -20 255 -26 127 -14 1364 -15
1485 0 50 5 164 17 255 26 91 8 190 20 220 26 30 5 87 14 125 20 195 28 462
76 590 106 137 31 231 53 305 69 41 9 84 20 95 24 32 13 86 29 150 45 94 23
268 75 286 85 9 5 36 15 60 21 60 16 209 68 239 85 14 7 54 23 90 35 36 12 67
25 70 29 9 12 60 31 138 52 42 11 105 34 140 50 35 16 67 29 70 29 4 0 23 8
42 19 19 10 46 22 60 26 73 23 550 260 725 359 222 127 369 214 430 254 28 18
57 37 65 42 8 5 78 51 155 103 867 581 1555 1231 2231 2107 123 159 352 493
461 670 181 295 258 433 419 750 62 122 214 446 214 457 0 2 13 32 28 66 16
34 35 79 42 100 7 22 18 51 26 65 8 15 14 31 14 35 0 4 8 27 19 50 54 122 186
508 261 767 49 165 61 211 111 420 11 47 27 112 35 145 43 178 114 593 139
815 8 74 20 164 25 200 6 36 15 126 20 200 5 77 13 136 19 138 15 5 15 1289 0
1294 -6 2 -16 75 -24 173 -17 196 -49 472 -70 595 -49 293 -88 495 -110 590
-9 36 -25 101 -35 145 -36 154 -58 241 -85 330 -15 50 -36 122 -47 160 -35
123 -146 459 -169 510 -4 11 -20 52 -34 90 -14 39 -29 79 -35 90 -5 11 -30 73
-54 137 -25 65 -50 126 -55 135 -6 10 -25 52 -42 93 -100 237 -297 627 -447
885 -489 845 -1043 1530 -1812 2241 -221 204 -665 555 -930 734 -52 36 -99 69
-105 73 -17 15 -232 152 -350 224 -302 184 -772 429 -1055 549 -36 15 -99 42
-141 61 -42 18 -80 33 -83 33 -4 0 -26 8 -49 19 -67 30 -221 89 -252 97 -16 4
-40 13 -54 20 -14 8 -32 14 -39 14 -7 0 -20 4 -30 10 -9 5 -62 23 -117 40 -55
18 -109 35 -120 40 -43 17 -83 30 -140 46 -106 29 -189 52 -245 69 -30 9 -93
26 -140 37 -98 23 -226 53 -320 74 -114 27 -385 77 -535 99 -55 8 -131 19
-170 25 -79 12 -332 38 -474 49 -60 4 -96 11 -99 19 -5 17 -1289 17 -1294 0z
m1067 -318 c215 -11 591 -45 730 -65 286 -41 518 -80 645 -109 36 -8 108 -24
160 -35 275 -59 814 -214 945 -272 11 -4 58 -22 105 -38 47 -16 110 -39 140
-51 30 -12 69 -26 85 -32 17 -6 35 -14 40 -18 6 -4 28 -13 50 -20 22 -7 51
-18 65 -25 30 -16 94 -43 175 -76 33 -13 62 -27 63 -31 2 -5 8 -8 13 -8 18 0
328 -151 512 -249 141 -75 407 -229 532 -308 110 -69 269 -175 275 -182 3 -4
29 -22 58 -40 81 -52 401 -293 552 -417 453 -372 909 -830 1272 -1279 337
-418 586 -786 870 -1290 49 -86 244 -471 280 -551 10 -22 33 -73 53 -115 19
-42 35 -79 35 -82 0 -4 13 -34 29 -69 17 -35 51 -117 76 -183 25 -66 52 -133
59 -150 8 -16 26 -66 41 -110 14 -44 39 -116 55 -160 83 -235 190 -605 240
-835 10 -47 26 -116 35 -155 29 -122 60 -295 111 -625 16 -108 48 -396 66
-605 16 -186 16 -1113 0 -1300 -18 -208 -49 -497 -66 -605 -54 -344 -82 -502
-110 -620 -9 -36 -23 -101 -32 -145 -8 -44 -19 -93 -24 -110 -6 -16 -26 -91
-46 -165 -68 -259 -189 -639 -240 -757 -8 -17 -14 -36 -14 -43 0 -7 -7 -26
-14 -43 -8 -18 -31 -75 -52 -127 -37 -97 -108 -266 -149 -355 -70 -154 -92
-201 -146 -310 -558 -1134 -1362 -2139 -2364 -2956 -157 -128 -369 -288 -510
-384 -55 -38 -120 -83 -145 -100 -65 -45 -316 -201 -455 -282 -180 -106 -306
-173 -555 -294 -124 -61 -237 -117 -252 -125 -35 -19 -41 -18 -29 5 19 34 78
253 119 441 37 166 68 359 78 480 2 25 8 81 12 125 11 104 12 574 1 690 -15
170 -65 516 -88 610 -5 22 -19 81 -31 130 -56 241 -189 634 -282 834 -89 192
-173 360 -218 436 -27 47 -50 88 -50 91 0 9 -127 212 -209 334 l-71 105 23 17
c12 9 33 23 47 30 70 36 207 154 280 240 64 77 132 206 151 288 13 59 18 252
7 311 -21 116 -110 301 -213 444 -83 115 -304 344 -441 455 -213 173 -590 425
-754 503 -8 4 -33 18 -55 31 -22 13 -80 45 -130 70 -49 26 -97 51 -105 56 -12
8 -110 54 -305 145 -16 8 -57 26 -90 40 -33 15 -73 33 -89 41 -16 8 -33 14
-38 14 -4 0 -36 13 -70 28 -35 16 -83 37 -108 46 -25 10 -61 25 -80 33 -19 9
-46 19 -60 23 -14 5 -50 18 -80 30 -30 12 -73 27 -95 35 -22 7 -65 23 -95 34
-81 32 -368 126 -515 170 -38 11 -92 28 -120 36 -27 9 -86 26 -130 37 -44 11
-89 24 -100 29 -11 5 -49 16 -85 24 -60 15 -124 32 -210 56 -19 5 -53 13 -75
18 -22 5 -71 17 -110 25 -72 17 -186 42 -355 77 -52 11 -126 27 -165 35 -102
22 -499 90 -690 118 -55 8 -140 19 -190 25 -49 6 -108 13 -130 16 -22 3 -134
14 -250 24 -115 11 -228 22 -250 25 -22 3 -105 8 -185 11 -80 3 -156 8 -170
11 -33 7 -797 7 -841 0 -19 -3 -79 -8 -134 -11 -55 -3 -181 -14 -280 -25 -99
-11 -202 -23 -230 -26 -27 -3 -63 -9 -80 -14 -16 -5 -57 -11 -90 -15 -67 -8
-139 -22 -265 -54 -150 -38 -163 -42 -255 -73 -49 -16 -104 -33 -121 -38 -18
-4 -46 -15 -64 -24 -18 -9 -37 -16 -42 -16 -10 0 -177 -83 -245 -121 -142 -81
-346 -259 -388 -341 -10 -18 -23 -43 -29 -55 -6 -13 -14 -23 -18 -23 -5 0 -8
-6 -8 -12 0 -7 -7 -26 -16 -43 -41 -79 -56 -286 -29 -412 22 -107 85 -250 151
-346 l34 -49 -83 -50 c-171 -104 -311 -198 -457 -307 -389 -291 -691 -585
-997 -972 -37 -47 -80 -97 -95 -112 -16 -16 -28 -34 -28 -42 0 -8 -5 -15 -10
-15 -6 0 -15 -12 -21 -27 -6 -16 -29 -57 -53 -93 -68 -103 -112 -173 -126
-199 l-13 -24 -16 34 c-9 19 -24 52 -33 74 -9 22 -28 66 -42 97 -14 31 -26 60
-26 63 0 4 -6 21 -14 38 -25 54 -76 186 -123 317 -24 69 -53 148 -63 175 -25
67 -112 343 -151 480 -33 117 -49 181 -79 310 -10 44 -26 112 -35 150 -34 143
-62 292 -111 590 -86 524 -120 1269 -86 1855 18 309 51 631 86 845 51 311 77
450 111 590 9 39 23 99 30 135 31 148 112 430 207 725 29 91 148 414 169 462
11 23 19 46 19 50 1 4 9 26 20 48 11 22 19 44 20 48 0 5 14 38 30 74 17 35 30
66 30 68 0 3 14 35 31 72 17 38 44 97 61 133 107 235 325 641 476 885 194 312
394 597 611 870 75 94 145 181 157 195 175 204 292 329 523 561 364 363 595
564 976 849 274 205 790 540 935 607 8 4 38 20 65 36 81 48 438 227 452 227 7
0 13 5 13 10 0 6 4 10 10 10 5 0 42 15 82 34 154 71 187 86 193 86 4 0 21 6
38 14 80 36 129 57 217 91 52 20 109 42 125 49 17 7 84 32 150 56 66 23 129
46 140 50 42 18 358 113 500 151 44 11 89 25 100 30 11 4 54 15 95 24 41 9
116 25 165 36 178 39 232 50 335 70 118 22 313 52 470 73 58 8 119 17 135 20
42 8 412 37 585 46 220 10 653 10 855 0z m-3650 -9711 c117 -7 169 -10 368
-24 33 -2 75 -6 95 -9 40 -6 232 -27 297 -32 22 -1 63 -7 90 -12 28 -6 88 -15
135 -21 82 -11 205 -29 380 -56 47 -7 119 -20 160 -28 41 -9 134 -27 205 -41
72 -14 159 -32 195 -40 463 -100 473 -103 595 -136 44 -12 114 -30 155 -40 41
-10 109 -28 150 -40 41 -12 113 -33 160 -47 47 -14 135 -41 195 -60 61 -19
124 -39 140 -43 35 -9 314 -105 365 -125 19 -7 80 -30 135 -50 55 -20 114 -43
130 -50 17 -8 71 -30 120 -50 91 -37 207 -88 300 -130 28 -13 57 -26 65 -29 8
-3 22 -10 30 -15 8 -5 22 -12 30 -15 8 -3 22 -10 30 -15 8 -5 47 -25 85 -44
39 -20 95 -49 125 -66 30 -17 64 -35 75 -41 11 -5 38 -21 60 -35 22 -14 49
-29 60 -34 12 -5 27 -16 34 -25 7 -9 18 -16 23 -16 5 0 43 -24 85 -52 41 -29
85 -60 97 -68 11 -8 58 -45 104 -84 227 -190 321 -356 266 -472 -53 -112 -284
-219 -624 -289 -56 -12 -312 -46 -410 -55 -311 -29 -831 -30 -1150 -1 -52 5
-98 7 -101 5 -4 -2 -31 0 -60 6 -30 5 -85 11 -124 14 -112 9 -254 24 -340 36
-44 6 -118 15 -165 20 -97 11 -252 35 -325 50 -27 6 -84 15 -125 20 -114 14
-408 73 -805 161 -184 41 -232 52 -315 76 -47 13 -112 30 -145 37 -64 14 -159
40 -320 88 -55 16 -131 39 -170 50 -38 11 -93 29 -122 40 -29 11 -74 26 -100
33 -26 7 -61 18 -78 24 -16 6 -64 23 -105 37 -41 15 -115 41 -165 59 -49 18
-117 43 -150 55 -33 12 -73 28 -90 35 -16 7 -50 21 -75 31 -25 10 -69 28 -98
41 -29 13 -54 23 -57 23 -17 0 -421 194 -540 259 -33 19 -78 43 -100 55 -22
11 -42 24 -45 27 -3 3 -12 8 -20 12 -17 8 -20 9 -160 101 -58 38 -107 72 -110
76 -3 4 -10 9 -16 11 -25 9 -212 176 -264 236 -30 35 -70 92 -88 126 -31 57
-34 68 -30 131 l4 69 56 52 c93 86 223 143 478 209 129 33 432 74 620 85 184
10 711 10 895 0z"/>
<path d="M6779 18008 c0 -2 -2 -14 -4 -28 -9 -81 -50 -306 -55 -310 -4 -3 -18
-70 -31 -149 -19 -119 -26 -145 -41 -149 -10 -2 -18 -8 -18 -11 0 -4 -29 -22
-65 -40 -36 -18 -65 -36 -65 -41 0 -4 -17 -15 -37 -24 -54 -24 -117 -60 -121
-68 -2 -5 -10 -8 -18 -8 -8 0 -14 -3 -14 -7 0 -5 -26 -21 -58 -38 -62 -33 -92
-58 -92 -78 0 -7 55 -42 123 -77 67 -35 124 -67 127 -70 3 -4 37 -22 75 -40
39 -18 71 -37 73 -41 2 -5 29 -20 61 -34 64 -29 75 -47 87 -145 4 -30 11 -58
16 -61 8 -5 29 -110 66 -334 13 -75 21 -101 33 -103 16 -3 187 156 375 347
l82 85 54 -12 c29 -6 76 -12 103 -13 28 -1 55 -6 60 -9 6 -4 64 -11 130 -14
131 -8 208 -14 241 -21 32 -7 51 20 31 43 -9 9 -28 51 -43 92 -15 41 -33 82
-39 90 -14 17 -58 111 -70 150 -4 14 -15 36 -24 50 -9 13 -28 54 -42 91 l-26
66 27 70 c15 38 34 83 43 99 9 16 24 52 33 79 10 28 24 61 31 75 7 14 13 29
13 33 0 4 15 40 33 80 19 40 37 87 40 105 l7 34 -63 -8 c-88 -10 -90 -11 -107
-17 -8 -3 -37 -8 -65 -12 -27 -4 -59 -8 -70 -10 -11 -2 -81 -11 -157 -20
l-136 -17 -79 68 c-43 37 -88 77 -99 88 -21 20 -41 38 -219 195 -67 59 -102
81 -106 69z"/>
<path d="M13385 17488 c-11 -6 -22 -15 -25 -19 -7 -9 -71 -48 -92 -55 -10 -4
-18 -10 -18 -14 0 -4 -18 -15 -40 -25 -22 -10 -40 -22 -40 -27 0 -4 -6 -8 -12
-8 -7 0 -38 -17 -68 -38 -30 -20 -72 -46 -92 -57 -21 -11 -38 -23 -38 -28 0
-4 -5 -5 -10 -2 -6 3 -13 -1 -16 -9 -3 -9 -11 -16 -17 -16 -5 0 -63 -34 -128
-75 -65 -41 -120 -75 -122 -75 -2 0 -42 -25 -88 -55 -46 -30 -89 -55 -96 -55
-6 0 -13 -4 -15 -8 -4 -10 -105 -72 -117 -72 -5 0 -11 -3 -13 -7 -5 -12 -66
-53 -78 -53 -5 0 -10 -4 -10 -8 0 -5 -23 -19 -50 -32 -28 -13 -55 -29 -61 -36
-6 -7 -33 -24 -61 -39 -27 -14 -72 -42 -99 -61 -27 -19 -51 -34 -54 -34 -3 0
-22 -11 -43 -24 -31 -20 -46 -23 -78 -17 -21 4 -48 12 -59 18 -11 6 -37 14
-58 17 -21 3 -48 11 -59 17 -31 17 -200 69 -224 69 -11 0 -24 4 -30 9 -8 9
-53 23 -228 72 -38 11 -77 24 -87 29 -10 6 -28 10 -40 10 -12 0 -40 9 -63 19
-23 10 -84 31 -136 46 -52 15 -140 42 -195 60 -55 18 -145 45 -200 60 -55 16
-104 32 -110 35 -22 15 -125 42 -140 37 -19 -8 -19 -44 -1 -105 23 -75 43
-151 65 -242 11 -47 32 -134 47 -195 14 -60 41 -173 59 -250 18 -77 40 -167
48 -200 9 -33 30 -121 47 -195 18 -74 54 -221 81 -326 l48 -191 -33 -69 c-33
-68 -84 -150 -129 -204 -12 -15 -31 -40 -42 -56 -11 -15 -40 -55 -66 -89 -25
-33 -92 -125 -149 -205 -57 -80 -108 -149 -112 -155 -17 -21 -64 -84 -78 -105
-8 -12 -20 -28 -25 -34 -16 -17 -85 -116 -85 -121 0 -2 -12 -17 -26 -32 -14
-15 -46 -57 -70 -93 -24 -36 -86 -123 -139 -195 -104 -143 -115 -175 -62 -176
17 0 48 -2 67 -4 19 -2 96 -6 170 -9 74 -4 146 -9 160 -11 14 -2 84 -7 155
-10 72 -3 159 -8 195 -10 36 -3 175 -12 310 -20 302 -19 363 -23 420 -29 25
-2 100 -7 168 -11 l122 -8 30 -41 c51 -72 106 -147 209 -286 55 -74 118 -160
140 -190 21 -30 88 -120 148 -200 59 -80 116 -157 125 -171 9 -14 23 -32 30
-40 8 -8 29 -36 48 -64 18 -27 45 -64 59 -81 14 -18 58 -75 96 -129 39 -53 85
-114 103 -137 17 -22 32 -46 32 -53 0 -7 10 -24 21 -39 34 -43 57 -31 84 44
27 76 103 253 152 360 20 41 43 97 53 125 10 28 27 69 38 90 11 22 32 72 47
110 15 39 43 102 61 142 19 39 34 76 34 81 0 6 18 50 41 99 23 48 50 112 60
142 11 30 35 86 54 125 19 39 48 107 65 151 59 153 61 156 110 177 25 11 117
44 205 74 88 30 203 69 255 88 93 33 521 182 835 290 88 30 167 59 175 64 8 5
45 17 83 27 66 18 67 19 67 51 0 24 -5 34 -16 34 -15 0 -64 35 -140 100 -22
19 -92 78 -154 130 -63 52 -138 115 -166 140 -29 25 -85 72 -124 105 -40 33
-94 78 -120 100 -26 22 -58 49 -71 59 -13 10 -51 42 -84 71 -33 28 -73 62 -89
76 -16 13 -53 44 -81 69 -28 25 -101 87 -162 138 l-111 93 -4 72 c-4 71 -12
1013 -13 1545 0 265 0 272 -20 272 -11 0 -29 -6 -40 -12z"/>
<path d="M9373 17369 c-18 -5 -33 -14 -33 -19 0 -6 -6 -10 -13 -10 -28 0 -86
-69 -101 -121 -60 -200 48 -359 243 -359 31 0 79 7 106 16 47 17 115 76 115
101 0 7 4 13 10 13 13 0 30 67 30 123 0 56 -18 137 -31 137 -5 0 -9 5 -9 11 0
16 -62 79 -77 79 -7 0 -13 4 -13 8 0 27 -158 41 -227 21z"/>
<path d="M6268 15583 c-21 -2 -38 -8 -38 -14 0 -5 -9 -9 -20 -9 -11 0 -20 -4
-20 -8 0 -5 -16 -16 -35 -25 -20 -9 -39 -25 -42 -34 -4 -10 -14 -25 -23 -33
-60 -56 -59 -296 2 -351 10 -9 18 -20 18 -23 0 -12 28 -36 42 -36 8 0 20 -9
28 -20 8 -11 22 -20 31 -20 10 0 19 -6 21 -12 6 -17 240 -17 246 0 2 7 12 12
22 12 10 0 22 9 25 20 3 11 13 20 21 20 17 0 44 23 44 37 0 5 9 15 20 23 11 8
20 22 20 32 0 10 5 18 10 18 6 0 10 18 10 40 0 22 5 40 10 40 6 0 10 20 10 45
0 25 -4 45 -10 45 -5 0 -10 18 -10 40 0 22 -4 40 -10 40 -5 0 -10 8 -10 18 0
10 -9 24 -20 32 -11 8 -20 22 -20 30 0 9 -16 24 -35 33 -19 9 -35 21 -35 27 0
5 -9 10 -19 10 -11 0 -21 4 -23 9 -3 11 -154 21 -210 14z"/>
<path d="M4641 15514 c-88 -31 -141 -117 -141 -229 0 -149 96 -245 244 -245
73 0 131 22 177 69 66 66 88 176 54 275 -40 118 -195 178 -334 130z"/>
<path d="M8211 15120 c-23 -5 -51 -18 -61 -30 -9 -11 -23 -20 -29 -20 -6 0
-15 -8 -18 -17 -4 -10 -15 -25 -25 -34 -44 -40 -46 -222 -3 -265 13 -13 26
-32 30 -43 3 -10 17 -22 30 -25 14 -4 25 -11 25 -16 0 -6 7 -10 15 -10 8 0 15
-4 15 -10 0 -6 40 -10 100 -10 60 0 100 4 100 10 0 6 7 10 15 10 8 0 15 5 15
10 0 6 8 14 18 17 21 9 42 28 42 41 0 6 7 12 15 16 8 3 15 12 15 20 0 8 5 16
12 18 16 6 17 186 1 196 -5 4 -13 17 -17 30 -4 12 -12 22 -17 22 -5 0 -9 7 -9
15 0 8 -11 17 -25 21 -13 3 -27 14 -30 24 -3 10 -17 21 -30 24 -47 12 -140 15
-184 6z"/>
<path d="M16466 15036 c-144 -54 -183 -260 -72 -372 28 -27 58 -47 87 -54 59
-16 149 -7 196 20 138 77 138 313 -1 391 -50 28 -155 35 -210 15z"/>
<path d="M3470 14720 c0 -5 -5 -10 -10 -10 -6 0 -23 -12 -38 -27 -25 -25 -27
-33 -27 -118 0 -85 2 -93 27 -118 15 -15 32 -27 38 -27 5 0 10 -4 10 -10 0 -6
38 -10 95 -10 57 0 95 4 95 10 0 6 5 10 11 10 15 0 49 39 49 57 0 7 5 13 10
13 6 0 10 32 10 75 0 43 -4 75 -10 75 -5 0 -10 6 -10 13 0 18 -34 57 -49 57
-6 0 -11 5 -11 10 0 6 -38 10 -95 10 -57 0 -95 -4 -95 -10z"/>
<path d="M7388 14394 c-16 -8 -28 -18 -28 -23 0 -5 -31 -25 -70 -45 -38 -20
-72 -41 -75 -46 -3 -4 -36 -25 -73 -46 -37 -21 -79 -46 -93 -56 -23 -17 -31
-18 -75 -7 -27 7 -51 16 -54 20 -3 4 -62 22 -130 40 -69 18 -127 36 -130 39
-11 13 -71 32 -85 26 -16 -6 -21 -41 -6 -50 5 -3 19 -59 31 -123 12 -65 26
-123 31 -129 12 -14 39 -122 39 -155 0 -15 -15 -45 -35 -70 -19 -24 -64 -84
-99 -134 -36 -49 -78 -105 -93 -122 -25 -30 -47 -72 -41 -79 2 -1 55 -5 118
-9 63 -4 131 -9 150 -11 19 -2 73 -7 120 -10 64 -4 88 -9 97 -22 7 -9 17 -23
23 -29 6 -7 24 -32 41 -55 16 -24 52 -72 79 -108 28 -36 65 -86 82 -112 36
-51 66 -67 75 -40 3 9 11 31 18 47 6 17 18 46 25 65 25 68 35 90 42 90 5 0 8
5 8 11 0 6 16 52 36 103 36 90 38 93 86 114 27 12 75 29 106 38 31 8 80 26
107 38 28 13 73 29 102 35 81 20 91 49 31 89 -14 9 -49 37 -78 62 -78 68 -143
122 -182 152 l-35 27 -7 223 c-9 307 -5 291 -58 262z"/>
<path d="M4150 14227 c-51 -24 -64 -48 -68 -117 -3 -57 -1 -68 20 -91 30 -33
69 -49 118 -49 49 0 88 16 118 49 21 23 23 34 20 91 -4 70 -18 94 -71 118 -35
15 -104 15 -137 -1z"/>
<path d="M5253 13983 c-18 -2 -33 -8 -33 -14 0 -5 -6 -9 -14 -9 -8 0 -21 -6
-28 -14 -8 -7 -24 -17 -36 -20 -12 -4 -22 -16 -22 -26 0 -11 -7 -23 -15 -27
-9 -5 -20 -35 -26 -71 -13 -72 0 -173 26 -198 8 -8 15 -20 15 -25 0 -13 26
-39 39 -39 5 0 17 -7 25 -15 25 -26 126 -39 198 -26 35 6 65 16 67 22 1 5 14
15 28 20 14 5 27 18 30 29 3 11 9 20 13 20 5 0 12 10 16 23 4 12 12 25 17 29
16 10 15 190 -1 196 -7 2 -12 10 -12 17 0 8 -6 18 -14 22 -8 4 -15 17 -18 28
-2 11 -12 21 -23 23 -11 3 -24 10 -28 18 -4 8 -14 14 -22 14 -7 0 -15 4 -17
10 -4 11 -118 20 -165 13z"/>
<path d="M16458 13888 c-21 -6 -38 -14 -38 -19 0 -5 -6 -9 -12 -9 -20 0 -85
-63 -93 -90 -4 -14 -13 -28 -19 -32 -7 -5 -11 -45 -11 -108 0 -63 4 -103 11
-108 6 -4 15 -18 19 -32 8 -27 73 -90 93 -90 6 0 12 -4 12 -9 0 -13 81 -31
137 -31 60 1 126 15 131 29 2 6 9 11 15 11 20 0 84 63 92 90 4 14 13 28 19 32
7 5 11 45 11 108 0 63 -4 103 -11 108 -6 4 -15 18 -19 32 -8 27 -72 90 -92 90
-6 0 -13 5 -15 11 -9 26 -156 37 -230 17z"/>
<path d="M14382 13653 c1 -5 -6 -21 -16 -38 -54 -86 -139 -215 -166 -251 -16
-23 -30 -44 -30 -47 0 -10 -111 -171 -123 -179 -6 -4 -15 -4 -19 -1 -5 2 -14
0 -21 -5 -7 -5 -19 -10 -27 -10 -8 -1 -26 -3 -40 -6 -14 -2 -70 -9 -125 -15
-55 -6 -127 -16 -160 -21 -33 -5 -78 -12 -100 -14 -83 -9 -103 -17 -98 -37 3
-11 20 -35 37 -53 44 -48 81 -99 79 -108 -2 -4 4 -8 12 -8 8 0 15 -3 15 -8 0
-7 22 -35 106 -137 107 -131 126 -159 121 -184 -2 -14 -14 -89 -26 -166 -12
-77 -26 -149 -31 -160 -5 -11 -11 -33 -15 -50 -7 -33 -34 -196 -35 -206 0 -17
36 -17 64 0 17 10 62 29 100 40 38 12 83 30 100 40 25 15 95 43 116 46 15 2
110 41 138 57 18 10 37 16 43 13 5 -4 9 -1 9 4 0 18 32 12 64 -12 17 -13 61
-37 98 -55 38 -17 83 -42 101 -56 19 -15 39 -26 46 -26 15 0 94 -40 101 -51 3
-5 28 -18 55 -30 28 -12 58 -28 67 -36 9 -8 24 -13 34 -11 15 3 17 18 15 148
-2 80 -4 159 -6 175 -2 17 -5 92 -6 168 l-1 139 90 91 c49 51 131 131 182 180
167 160 169 167 52 192 -102 22 -262 63 -287 75 -18 8 -101 28 -139 34 -8 1
-19 5 -22 9 -4 4 -15 7 -25 7 -13 0 -20 10 -25 35 -3 19 -10 35 -14 35 -4 0
-25 39 -46 88 -21 48 -43 94 -49 102 -6 8 -26 49 -44 90 -18 41 -41 85 -52 98
-10 14 -19 31 -19 38 0 7 -8 29 -17 48 -13 25 -25 36 -40 36 -13 0 -22 -3 -21
-7z"/>
<path d="M4105 13128 c-20 -29 -54 -80 -76 -113 -116 -175 -89 -158 -268 -175
-64 -7 -124 -16 -133 -21 -10 -5 -34 -9 -53 -9 -43 0 -47 -23 -10 -52 14 -11
25 -24 25 -29 0 -6 12 -22 26 -37 14 -15 36 -43 49 -62 12 -19 31 -44 42 -55
10 -11 28 -34 41 -51 l22 -31 -20 -104 c-11 -57 -24 -113 -29 -124 -11 -24
-31 -119 -31 -145 0 -17 3 -17 38 -5 20 8 68 23 107 35 38 12 72 25 75 29 3 4
41 19 85 33 79 25 80 25 104 7 13 -11 30 -19 37 -19 7 0 17 -6 21 -14 4 -7 33
-25 63 -39 30 -14 82 -41 114 -61 33 -20 65 -36 72 -36 10 0 13 45 11 201 l-2
201 25 20 c20 16 137 122 226 206 34 32 10 47 -121 77 -118 26 -205 56 -205
70 0 7 -7 15 -15 18 -13 6 -135 244 -135 265 0 5 -7 15 -15 22 -8 7 -15 21
-15 31 0 32 -17 21 -55 -33z"/>
<path d="M9383 13112 c-80 -33 -123 -98 -123 -187 0 -91 45 -156 128 -188 87
-34 177 -13 240 57 40 44 52 74 52 131 0 57 -12 87 -52 131 -63 70 -157 92
-245 56z"/>
<path d="M2875 13068 c-57 -21 -69 -42 -73 -123 -5 -87 10 -141 41 -151 12 -4
25 -12 29 -18 11 -16 170 -15 176 2 2 6 9 12 16 12 6 0 20 10 31 23 17 18 20
37 20 112 0 79 -3 93 -22 112 -39 39 -150 55 -218 31z"/>
<path d="M6260 13070 c0 -5 -7 -10 -15 -10 -8 0 -25 -10 -37 -22 -20 -20 -23
-33 -23 -113 0 -75 3 -94 20 -112 11 -13 27 -23 36 -23 10 0 19 -6 22 -12 2
-9 28 -13 82 -13 54 0 80 4 83 13 2 6 11 12 21 12 9 0 25 10 36 23 17 18 20
37 20 112 0 80 -2 93 -22 113 -13 12 -30 22 -38 22 -8 0 -15 5 -15 10 0 6 -35
10 -85 10 -50 0 -85 -4 -85 -10z"/>
<path d="M7741 12764 c-24 -13 -50 -33 -58 -44 -8 -11 -19 -18 -24 -15 -5 3
-7 0 -4 -7 3 -7 -3 -29 -13 -49 -15 -30 -16 -40 -5 -65 6 -16 12 -37 13 -46 0
-9 10 -32 23 -51 42 -65 172 -89 238 -44 54 37 91 75 87 89 -3 7 -1 26 3 42 6
22 3 46 -12 88 -18 47 -30 63 -67 88 -27 18 -59 30 -78 30 -18 0 -38 2 -46 4
-7 3 -33 -6 -57 -20z"/>
<path d="M7026 12464 c-3 -9 -6 -37 -6 -64 0 -64 17 -80 85 -80 81 0 85 3 85
70 0 89 -1 90 -85 90 -57 0 -74 -3 -79 -16z"/>
<path d="M11032 12399 c-23 -4 -49 -15 -58 -24 -9 -8 -24 -20 -35 -25 -10 -6
-19 -17 -19 -25 0 -8 -4 -15 -9 -15 -5 0 -13 -10 -17 -22 -4 -13 -12 -26 -17
-30 -16 -10 -15 -190 1 -196 7 -2 12 -10 12 -18 0 -8 6 -17 14 -20 8 -3 17
-16 20 -30 4 -13 13 -24 21 -24 8 0 15 -4 15 -10 0 -5 11 -12 25 -16 14 -3 25
-10 25 -15 0 -5 45 -9 100 -9 55 0 100 4 100 9 0 5 11 12 25 15 14 4 25 11 25
16 0 6 7 10 15 10 8 0 17 11 21 24 3 14 12 27 20 30 8 3 14 12 14 20 0 8 5 16
12 18 16 6 17 186 1 196 -5 4 -13 17 -17 30 -4 12 -12 22 -17 22 -5 0 -9 7 -9
15 0 8 -9 19 -19 25 -11 5 -26 17 -35 25 -16 16 -100 36 -145 34 -14 -1 -45
-5 -69 -10z"/>
<path d="M15763 12358 c-24 -5 -43 -14 -43 -19 0 -5 -11 -14 -25 -19 -14 -5
-25 -15 -25 -21 0 -7 -7 -17 -15 -23 -24 -18 -38 -117 -25 -183 5 -32 17 -63
25 -69 8 -6 15 -16 15 -23 0 -6 11 -16 25 -21 14 -5 25 -14 25 -19 0 -16 102
-32 157 -25 29 3 62 15 74 25 12 10 30 21 40 24 11 4 19 13 19 20 0 8 7 18 15
22 24 14 38 113 25 180 -5 32 -17 61 -25 66 -8 4 -15 14 -15 22 0 7 -9 17 -20
20 -11 3 -27 13 -36 22 -29 29 -115 39 -191 21z"/>
<path d="M17638 11998 c-21 -6 -38 -14 -38 -19 0 -5 -5 -9 -11 -9 -16 0 -79
-62 -79 -77 0 -7 -4 -13 -9 -13 -13 0 -31 -82 -31 -142 0 -60 16 -128 30 -128
6 0 10 -6 10 -13 0 -20 67 -86 95 -93 14 -3 25 -10 25 -15 0 -5 47 -9 105 -9
58 0 105 4 105 9 0 5 11 12 25 15 37 10 103 80 117 126 7 22 16 40 20 40 5 0
8 32 8 70 0 39 -4 70 -8 70 -4 0 -13 20 -20 45 -12 45 -72 115 -99 115 -7 0
-13 4 -13 9 0 26 -158 39 -232 19z"/>
<path d="M5513 11899 c-71 -21 -121 -108 -107 -187 16 -90 68 -132 164 -132
41 0 72 6 92 18 98 57 97 227 0 285 -38 21 -107 29 -149 16z"/>
<path d="M9756 11881 c-97 -64 -94 -217 6 -276 72 -42 177 -17 221 55 44 72
19 181 -51 223 -42 24 -138 23 -176 -2z"/>
<path d="M8401 11830 c-48 -11 -100 -68 -112 -119 -19 -84 30 -169 109 -191
52 -14 70 -13 118 10 87 43 119 139 72 222 -37 65 -112 97 -187 78z"/>
<path d="M16196 11633 c-4 -42 -12 -85 -17 -95 -5 -10 -18 -77 -29 -149 -18
-127 -20 -133 -52 -159 -18 -16 -62 -43 -97 -60 -35 -18 -91 -50 -124 -71 -33
-22 -66 -39 -73 -39 -7 0 -20 -9 -28 -21 -8 -12 -19 -18 -25 -14 -7 4 -11 -3
-11 -17 0 -17 15 -31 54 -55 30 -18 57 -33 60 -33 8 0 120 -53 126 -60 11 -13
59 -38 113 -59 47 -19 57 -28 57 -47 0 -27 22 -117 30 -124 3 -3 12 -36 19
-75 31 -165 54 -245 71 -245 8 0 86 73 252 237 l87 85 88 -6 c49 -4 108 -9
133 -11 106 -12 250 -14 250 -4 0 13 -78 175 -100 209 -9 14 -29 54 -45 90
-15 35 -35 71 -43 79 -14 15 -10 69 7 81 4 3 22 46 40 95 18 50 38 99 45 110
7 11 23 52 36 90 12 39 26 74 31 79 15 16 10 56 -6 56 -8 0 -15 -6 -15 -12 0
-9 -4 -8 -10 2 -5 8 -10 10 -10 4 0 -13 -27 -20 -175 -39 -60 -9 -126 -18
-145 -20 -111 -16 -111 -16 -138 5 -40 31 -110 91 -147 126 -19 17 -51 44 -72
60 -21 16 -49 41 -61 56 -13 16 -34 28 -47 28 -21 0 -23 -6 -29 -77z"/>
<path d="M7032 11523 c-36 -14 -56 -128 -31 -175 13 -24 67 -48 109 -48 37 0
105 33 114 55 10 27 7 102 -5 128 -6 14 -22 30 -36 36 -24 11 -127 14 -151 4z"/>
<path d="M13658 11333 c-16 -2 -28 -7 -28 -11 0 -4 -15 -14 -32 -21 -39 -17
-48 -26 -68 -66 -8 -16 -19 -33 -25 -37 -13 -9 -12 -168 2 -176 5 -4 16 -22
24 -40 8 -18 24 -35 36 -38 12 -3 24 -12 27 -19 2 -7 30 -19 61 -25 66 -14
173 0 191 25 6 8 16 15 23 15 6 0 15 8 18 18 4 9 13 22 21 27 7 6 16 30 19 53
3 23 10 42 14 42 5 0 9 16 9 35 0 19 -4 35 -9 35 -5 0 -11 18 -15 40 -3 23
-13 43 -20 46 -8 3 -17 15 -20 27 -3 12 -20 28 -38 36 -18 8 -35 18 -38 22 -7
10 -116 18 -152 12z"/>
<path d="M6353 11220 c-12 -5 -32 -19 -45 -32 -45 -45 -23 -188 29 -188 7 0
13 -4 13 -10 0 -5 25 -10 55 -10 49 0 58 4 90 35 31 32 35 41 35 88 0 43 -5
59 -28 86 -23 28 -36 34 -77 37 -28 2 -60 0 -72 -6z"/>
<path d="M4676 11134 c-11 -10 -16 -34 -16 -69 0 -83 2 -85 85 -85 l73 0 6 31
c11 55 7 107 -10 123 -10 11 -34 16 -69 16 -35 0 -59 -5 -69 -16z"/>
<path d="M12948 11039 c-16 -6 -28 -15 -28 -21 0 -5 -7 -16 -15 -24 -24 -25
-20 -106 8 -137 12 -15 28 -27 35 -27 7 0 12 -4 12 -10 0 -5 25 -10 55 -10 30
0 55 4 55 9 0 5 9 13 20 16 11 3 20 13 20 21 0 8 5 14 10 14 6 0 10 26 10 59
0 82 -28 113 -103 117 -28 2 -64 -1 -79 -7z"/>
<path d="M9812 10950 c-12 -5 -35 -22 -50 -37 -25 -25 -27 -34 -27 -101 0 -74
0 -74 39 -108 36 -31 45 -34 106 -34 65 0 68 1 108 41 41 39 42 43 42 105 0
35 -4 64 -9 64 -14 0 -20 38 -7 44 6 3 2 4 -9 3 -11 -1 -19 3 -18 9 1 6 -3 11
-10 12 -86 9 -146 10 -165 2z"/>
<path d="M17653 10744 c-13 -3 -23 -10 -23 -15 0 -5 -7 -9 -16 -9 -17 0 -31
-12 -57 -50 -23 -33 -24 -168 -1 -213 21 -39 38 -57 57 -57 9 0 17 -6 20 -12
2 -9 32 -13 102 -13 70 0 100 4 103 13 2 6 10 12 18 12 8 0 27 12 42 27 26 26
27 31 27 133 0 102 -1 107 -27 133 -15 15 -34 27 -42 27 -8 0 -16 5 -18 12 -4
12 -144 21 -185 12z"/>
<path d="M7713 10719 c-71 -21 -121 -108 -107 -187 15 -88 74 -136 164 -136
102 0 163 60 164 163 1 94 -53 156 -146 166 -24 2 -57 0 -75 -6z"/>
<path d="M8475 10687 c-37 -14 -50 -31 -65 -80 -9 -31 -8 -44 9 -82 11 -25 21
-45 23 -45 2 0 23 -6 49 -14 38 -12 50 -12 77 0 18 7 35 13 38 13 9 -1 40 53
47 81 4 17 0 37 -14 59 -10 17 -17 36 -14 41 15 24 -102 45 -150 27z"/>
<path d="M11258 10647 c-31 -12 -48 -45 -48 -91 0 -53 27 -78 91 -83 46 -4 58
-1 82 20 22 20 27 32 27 73 0 44 -3 51 -33 72 -35 23 -75 27 -119 9z"/>
<path d="M14668 10646 c-50 -27 -78 -63 -84 -110 -17 -119 39 -186 156 -186
58 0 62 2 105 45 44 44 45 46 45 110 0 37 -4 65 -10 65 -5 0 -10 7 -10 14 0 8
-16 27 -36 42 -43 33 -124 43 -166 20z"/>
<path d="M12296 10433 c-11 -3 -33 -18 -50 -34 -29 -27 -31 -33 -31 -101 0
-79 22 -127 58 -128 9 0 17 -4 17 -10 0 -6 27 -10 60 -10 56 0 63 3 101 39
l41 39 -4 75 c-3 65 -7 79 -28 97 -42 37 -101 49 -164 33z"/>
<path d="M15390 10303 c-8 -3 -30 -21 -49 -40 -27 -29 -34 -45 -38 -93 -10
-101 50 -170 147 -170 52 0 76 12 118 58 29 33 32 43 32 99 0 35 -4 63 -10 63
-5 0 -10 7 -10 16 0 48 -123 91 -190 67z"/>
<path d="M8971 10186 c-69 -38 -67 -162 4 -194 82 -37 165 12 165 98 0 87 -92
139 -169 96z"/>
<path d="M10476 10079 c-26 -31 -31 -55 -20 -97 14 -52 123 -71 162 -29 27 28
30 96 6 132 -14 21 -24 25 -69 25 -47 0 -56 -4 -79 -31z"/>
<path d="M11432 9924 c-37 -16 -52 -47 -52 -104 0 -59 15 -88 56 -105 49 -20
90 -19 140 5 44 22 54 40 54 100 0 60 -10 78 -54 100 -49 23 -97 25 -144 4z"/>
<path d="M14133 9513 c-13 -2 -23 -9 -23 -14 0 -5 -7 -9 -15 -9 -8 0 -15 -5
-15 -11 0 -6 -7 -18 -16 -27 -13 -13 -15 -30 -11 -86 2 -39 10 -72 16 -74 6
-2 18 -10 25 -18 8 -8 19 -14 25 -14 6 0 11 -4 11 -10 0 -6 28 -10 63 -10 51
0 65 4 77 20 8 11 20 20 27 20 22 0 33 37 33 108 0 65 -2 70 -32 97 -26 24
-43 29 -88 31 -30 1 -65 0 -77 -3z"/>
<path d="M17665 9489 c-5 -5 -19 -16 -30 -24 -17 -11 -20 -25 -20 -85 0 -60 3
-74 20 -85 11 -8 25 -19 32 -25 15 -12 133 -14 133 -1 0 5 9 11 20 14 24 6 40
45 40 97 0 52 -16 91 -40 97 -11 3 -20 9 -20 14 0 12 -123 10 -135 -2z"/>
<path d="M12943 9442 c-54 -65 -14 -152 70 -152 61 0 87 26 87 88 -1 67 -24
92 -87 92 -40 0 -52 -5 -70 -28z"/>
<path d="M15370 9390 c-27 -27 -28 -108 -1 -138 24 -28 110 -31 141 -5 30 26
29 118 -2 144 -30 27 -111 26 -138 -1z"/>
</g>
</svg>
